<?xml version="1.0" encoding="UTF-8"?>
<svg id="Layer_1" data-name="Layer 1" xmlns="http://www.w3.org/2000/svg" viewBox="0 0 122.88 122.57">
  <defs>
    <style>
      .cls-1 {
        fill: #f7f7f7;
        fill-rule: evenodd;
      }
    </style>
  </defs>
  <path class="cls-1" d="m3.78,66.08h47.87c2.04,0,3.72,1.99,3.72,4.41v46.48c0,2.43-1.67,4.42-3.72,4.42H3.78c-2.04,0-3.72-1.99-3.72-4.42v-46.48c0-2.43,1.67-4.41,3.72-4.41h0ZM71.22,0h47.88c2.05,0,3.72,1.99,3.72,4.41v46.48c0,2.43-1.67,4.41-3.72,4.41h-47.88c-2.04,0-3.71-1.98-3.71-4.41V4.41c0-2.43,1.67-4.41,3.71-4.41h0ZM3.71,0h47.88c2.05,0,3.72,1.99,3.72,4.41v46.48c0,2.43-1.67,4.41-3.72,4.41H3.71c-2.04,0-3.71-1.98-3.71-4.41V4.41C0,1.99,1.67,0,3.71,0h0Zm67.57,67.26h47.88c2.04,0,3.72,1.99,3.72,4.42v46.48c0,2.43-1.67,4.41-3.72,4.41h-47.88c-2.04,0-3.72-1.99-3.72-4.41v-46.48c0-2.43,1.67-4.42,3.72-4.42h0Z"/>
</svg>